<svg width="1600" height="980" viewBox="0 0 1600 980" fill="none" xmlns="http://www.w3.org/2000/svg">
  <defs>
    <linearGradient id="bg2" x1="140" y1="40" x2="1460" y2="940" gradientUnits="userSpaceOnUse">
      <stop stop-color="#F8F2E8"/>
      <stop offset="1" stop-color="#EFE3CF"/>
    </linearGradient>
    <linearGradient id="navy" x1="0" y1="0" x2="1" y2="1">
      <stop stop-color="#0D5C63"/>
      <stop offset="1" stop-color="#18464B"/>
    </linearGradient>
    <linearGradient id="sand" x1="0" y1="0" x2="0" y2="1">
      <stop stop-color="#FFFDF8"/>
      <stop offset="1" stop-color="#F6EEDF"/>
    </linearGradient>
    <filter id="softShadow" x="0" y="0" width="1600" height="980" filterUnits="userSpaceOnUse" color-interpolation-filters="sRGB">
      <feDropShadow dx="0" dy="18" stdDeviation="18" flood-color="#2B241D" flood-opacity="0.08"/>
    </filter>
    <marker id="arrow2" markerWidth="16" markerHeight="16" refX="11" refY="8" orient="auto">
      <path d="M0 0L16 8L0 16V0Z" fill="#0D5C63"/>
    </marker>
  </defs>

  <rect width="1600" height="980" rx="40" fill="url(#bg2)"/>
  <circle cx="1325" cy="180" r="170" fill="#0D5C63" fill-opacity="0.05"/>
  <circle cx="260" cy="820" r="210" fill="#BF6C52" fill-opacity="0.07"/>

  <text x="120" y="98" fill="#0D5C63" font-family="Georgia, 'Times New Roman', serif" font-size="24" letter-spacing="5">PROOF GRAPHIC</text>
  <text x="120" y="158" fill="#1B1A17" font-family="Georgia, 'Times New Roman', serif" font-size="54" font-weight="700">From Shortcut Input to</text>
  <text x="120" y="214" fill="#1B1A17" font-family="Georgia, 'Times New Roman', serif" font-size="54" font-weight="700">Dashboard Visibility</text>
  <text x="120" y="272" fill="#5E584F" font-family="Georgia, 'Times New Roman', serif" font-size="27">A public-safe example of how one repeated action turns into</text>
  <text x="120" y="308" fill="#5E584F" font-family="Georgia, 'Times New Roman', serif" font-size="27">structured data and operational review.</text>

  <g filter="url(#softShadow)">
    <rect x="120" y="390" width="360" height="430" rx="28" fill="url(#sand)" stroke="#D7CDB9" stroke-width="2"/>
    <rect x="620" y="390" width="360" height="430" rx="28" fill="url(#sand)" stroke="#D7CDB9" stroke-width="2"/>
    <rect x="1120" y="390" width="360" height="430" rx="28" fill="url(#sand)" stroke="#D7CDB9" stroke-width="2"/>
  </g>

  <rect x="154" y="426" width="164" height="36" rx="18" fill="#0D5C63" fill-opacity="0.1"/>
  <text x="179" y="450" fill="#0D5C63" font-family="Arial, sans-serif" font-size="17" font-weight="700">SHORTCUT INPUT</text>
  <rect x="154" y="492" width="292" height="276" rx="26" fill="url(#navy)"/>
  <text x="186" y="540" fill="#FFFDF8" font-family="Arial, sans-serif" font-size="26" font-weight="700">Log Income / Expense</text>
  <rect x="186" y="572" width="228" height="40" rx="12" fill="#FFFDF8" fill-opacity="0.14"/>
  <text x="202" y="598" fill="#F4EFE7" font-family="Arial, sans-serif" font-size="20">Type: Expense</text>
  <rect x="186" y="624" width="228" height="40" rx="12" fill="#FFFDF8" fill-opacity="0.14"/>
  <text x="202" y="650" fill="#F4EFE7" font-family="Arial, sans-serif" font-size="20">Amount: £18.50</text>
  <rect x="186" y="676" width="228" height="40" rx="12" fill="#FFFDF8" fill-opacity="0.14"/>
  <text x="202" y="702" fill="#F4EFE7" font-family="Arial, sans-serif" font-size="20">Category: Stock</text>
  <text x="154" y="786" fill="#5E584F" font-family="Arial, sans-serif" font-size="20">Fast capture from iPhone while working.</text>

  <rect x="654" y="426" width="166" height="36" rx="18" fill="#0D5C63" fill-opacity="0.1"/>
  <text x="679" y="450" fill="#0D5C63" font-family="Arial, sans-serif" font-size="17" font-weight="700">JSON HANDOFF</text>
  <rect x="654" y="496" width="292" height="248" rx="24" fill="#1B1A17"/>
  <text x="684" y="540" fill="#CBE2E4" font-family="'Courier New', monospace" font-size="21">{</text>
  <text x="714" y="576" fill="#E8DED1" font-family="'Courier New', monospace" font-size="21">"sheet": "Transactions",</text>
  <text x="714" y="612" fill="#E8DED1" font-family="'Courier New', monospace" font-size="21">"type": "Expense",</text>
  <text x="714" y="648" fill="#E8DED1" font-family="'Courier New', monospace" font-size="21">"amount": "18.50",</text>
  <text x="714" y="684" fill="#E8DED1" font-family="'Courier New', monospace" font-size="21">"category": "Stock"</text>
  <text x="684" y="720" fill="#CBE2E4" font-family="'Courier New', monospace" font-size="21">}</text>
  <text x="654" y="786" fill="#5E584F" font-family="Arial, sans-serif" font-size="20">Apps Script routes the entry into the right tab.</text>

  <rect x="1154" y="426" width="199" height="36" rx="18" fill="#0D5C63" fill-opacity="0.1"/>
  <text x="1179" y="450" fill="#0D5C63" font-family="Arial, sans-serif" font-size="17" font-weight="700">DASHBOARD EFFECT</text>
  <rect x="1154" y="492" width="292" height="276" rx="26" fill="#141312"/>
  <rect x="1182" y="526" width="108" height="72" rx="16" fill="#1E1C1A" stroke="#A7773B" stroke-width="1.5"/>
  <rect x="1310" y="526" width="108" height="72" rx="16" fill="#1E1C1A" stroke="#A7773B" stroke-width="1.5"/>
  <text x="1201" y="556" fill="#B9A48A" font-family="Arial, sans-serif" font-size="16">Expenses</text>
  <text x="1200" y="586" fill="#FFF8ED" font-family="Georgia, 'Times New Roman', serif" font-size="27" font-weight="700">+1</text>
  <text x="1326" y="556" fill="#B9A48A" font-family="Arial, sans-serif" font-size="16">Stock</text>
  <text x="1324" y="586" fill="#FFF8ED" font-family="Georgia, 'Times New Roman', serif" font-size="27" font-weight="700">Updated</text>
  <rect x="1182" y="624" width="236" height="28" rx="10" fill="#26221E"/>
  <rect x="1182" y="668" width="202" height="28" rx="10" fill="#26221E"/>
  <text x="1200" y="644" fill="#D9CDBE" font-family="Arial, sans-serif" font-size="18">Recent transaction now visible</text>
  <text x="1200" y="688" fill="#D9CDBE" font-family="Arial, sans-serif" font-size="18">Feeds weekly review and reporting</text>
  <text x="1154" y="786" fill="#5E584F" font-family="Arial, sans-serif" font-size="20">One small input improves later visibility and decisions.</text>

  <path d="M480 620H610" stroke="#0D5C63" stroke-width="8" stroke-linecap="round" marker-end="url(#arrow2)"/>
  <path d="M980 620H1110" stroke="#0D5C63" stroke-width="8" stroke-linecap="round" marker-end="url(#arrow2)"/>

  <rect x="270" y="866" width="1060" height="74" rx="22" fill="url(#navy)"/>
  <text x="308" y="912" fill="#F7F1E7" font-family="Georgia, 'Times New Roman', serif" font-size="30" font-weight="700">Why this is stronger than a generic automation claim</text>
  <text x="930" y="912" fill="#D7E6E8" font-family="Arial, sans-serif" font-size="23">It shows a concrete input-to-outcome loop that supports real business review.</text>
</svg>
